<?xml version="1.0" encoding="UTF-8"?>
<svg width="800" height="600" viewBox="0 0 800 600" fill="none" xmlns="http://www.w3.org/2000/svg">
  <!-- Background Elements -->
  <path d="M0 0h800v600H0z" fill="#f8fafc"/>
  <circle cx="700" cy="100" r="80" fill="#60a5fa" fill-opacity="0.2"/>
  <circle cx="100" cy="500" r="60" fill="#f472b6" fill-opacity="0.2"/>
  
  <!-- Main Illustration -->
  <g transform="translate(200 100)">
    <!-- Document -->
    <rect x="50" y="50" width="300" height="400" rx="8" fill="#fff" stroke="#2563eb" stroke-width="2"/>
    <rect x="80" y="100" width="240" height="20" rx="4" fill="#60a5fa"/>
    <rect x="80" y="140" width="180" height="20" rx="4" fill="#60a5fa"/>
    <rect x="80" y="180" width="200" height="20" rx="4" fill="#60a5fa"/>
    
    <!-- Magnifying Glass -->
    <circle cx="400" cy="200" r="60" fill="none" stroke="#ec4899" stroke-width="8"/>
    <line x1="440" y1="240" x2="480" y2="280" stroke="#ec4899" stroke-width="8" stroke-linecap="round"/>
    
    <!-- Checkmarks -->
    <g transform="translate(100 250)">
      <circle cx="20" cy="20" r="15" fill="#22c55e"/>
      <path d="M12 20l5 5 10-10" stroke="#fff" stroke-width="2" stroke-linecap="round"/>
    </g>
    <g transform="translate(100 300)">
      <circle cx="20" cy="20" r="15" fill="#22c55e"/>
      <path d="M12 20l5 5 10-10" stroke="#fff" stroke-width="2" stroke-linecap="round"/>
    </g>
    <g transform="translate(100 350)">
      <circle cx="20" cy="20" r="15" fill="#22c55e"/>
      <path d="M12 20l5 5 10-10" stroke="#fff" stroke-width="2" stroke-linecap="round"/>
    </g>
  </g>
  
  <!-- Decorative Elements -->
  <circle cx="50" cy="50" r="5" fill="#2563eb"/>
  <circle cx="750" cy="550" r="5" fill="#ec4899"/>
  <circle cx="700" cy="300" r="5" fill="#22c55e"/>
  <circle cx="100" cy="300" r="5" fill="#f59e0b"/>
</svg> 